<svg width="14" height="8" viewBox="0 0 14 8" fill="none" xmlns="http://www.w3.org/2000/svg">
<path d="M6.14535 0.382978L0.244186 6.55319C0.162791 6.6383 0.101744 6.7305 0.0610465 6.82979C0.0203488 6.92908 0 7.03546 0 7.14894C0 7.37589 0.0746124 7.57447 0.223837 7.74468C0.373062 7.91489 0.569767 8 0.813953 8H13.186C13.4302 8 13.6269 7.91489 13.7762 7.74468C13.9254 7.57447 14 7.37589 14 7.14894C14 7.0922 13.9186 6.89362 13.7558 6.55319L7.85465 0.382978C7.71899 0.241135 7.58333 0.141843 7.44767 0.0851059C7.31202 0.028368 7.16279 0 7 0C6.83721 0 6.68798 0.028368 6.55233 0.0851059C6.41667 0.141843 6.28101 0.241135 6.14535 0.382978Z" fill="#1E5515"/>
</svg>
