<svg width="14" height="8" viewBox="0 0 14 8" fill="none" xmlns="http://www.w3.org/2000/svg">
<path d="M6.14535 7.61702L0.244186 1.44681C0.162791 1.3617 0.101744 1.2695 0.0610465 1.17021C0.0203488 1.07092 0 0.964539 0 0.851064C0 0.624114 0.0746124 0.425532 0.223837 0.255319C0.373062 0.0851064 0.569767 0 0.813953 0H13.186C13.4302 0 13.6269 0.0851064 13.7762 0.255319C13.9254 0.425532 14 0.624114 14 0.851064C14 0.907802 13.9186 1.10638 13.7558 1.44681L7.85465 7.61702C7.71899 7.75887 7.58333 7.85816 7.44767 7.91489C7.31202 7.97163 7.16279 8 7 8C6.83721 8 6.68798 7.97163 6.55233 7.91489C6.41667 7.85816 6.28101 7.75887 6.14535 7.61702Z" fill="#1E5515"/>
</svg>
